# Material
mtllib box.mtl

# Vertices
v  0.500000 -0.500000  0.500000    # 1
v -0.500000 -0.500000  0.500000    # 2
v  0.500000 -0.500000 -0.500000    # 3
v -0.500000 -0.500000 -0.500000    # 4
v -0.500000  0.500000 -0.500000    # 5
v  0.500000  0.500000 -0.500000    # 6
v -0.500000  0.500000  0.500000    # 7
v  0.500000  0.500000  0.500000    # 8


# Texture coordinates
vt  0.000000  0.000000
vt  1.000000  0.000000
vt  1.000000  1.000000
vt  0.000000  1.000000


# Normal vectors
vn  0.0000 -1.0000  0.0000
vn  0.0000  0.0000 -1.0000
vn  0.0000  0.0000  1.0000
vn -1.0000 -0.0000  0.0000
vn  1.0000  0.0000  0.0000
vn  0.0000  1.0000  0.0000


# Faces
usemtl metal
f 1/1/1 2/2/1 4/3/1 3/4/1
usemtl pebbles
f 5/1/2 6/2/2 3/3/2 4/4/2
usemtl door
f 2/1/3 1/2/3 8/3/3 7/4/3
usemtl bricks
f 2/2/4 7/3/4 5/4/4 4/1/4
usemtl lava
f 8/4/5 1/1/5 3/2/5 6/3/5
usemtl toy_box
f 7/1/6 8/2/6 6/3/6 5/4/6
